<?xml version="1.0" encoding="utf-8"?>
<!-- Generator: Adobe Illustrator 21.0.2, SVG Export Plug-In . SVG Version: 6.00 Build 0)  -->
<svg version="1.1"
	 id="svg6502" inkscape:version="0.91 r13725" sodipodi:docname="dna.svg" xmlns:cc="http://creativecommons.org/ns#" xmlns:dc="http://purl.org/dc/elements/1.1/" xmlns:inkscape="http://www.inkscape.org/namespaces/inkscape" xmlns:rdf="http://www.w3.org/1999/02/22-rdf-syntax-ns#" xmlns:sodipodi="http://sodipodi.sourceforge.net/DTD/sodipodi-0.dtd" xmlns:svg="http://www.w3.org/2000/svg"
	 xmlns="http://www.w3.org/2000/svg" xmlns:xlink="http://www.w3.org/1999/xlink" x="0px" y="0px" viewBox="0 0 130.3 201.6"
	 style="enable-background:new 0 0 130.3 201.6;" xml:space="preserve">
<sodipodi:namedview  bordercolor="#666666" borderopacity="1.0" fit-margin-bottom="20" fit-margin-left="20" fit-margin-right="20" fit-margin-top="20" id="base" inkscape:current-layer="layer1" inkscape:cx="-533.97713" inkscape:cy="217.80504" inkscape:document-units="px" inkscape:pageopacity="0.0" inkscape:pageshadow="2" inkscape:window-height="705" inkscape:window-maximized="1" inkscape:window-width="1366" inkscape:window-x="-8" inkscape:window-y="-8" inkscape:zoom="0.35" pagecolor="#ffffff" showgrid="false" units="px">
	</sodipodi:namedview>
<g id="layer1" transform="translate(-520.4057,-548.5192)" inkscape:groupmode="layer" inkscape:label="Layer 1">
	<path id="path4190-0-4-9" inkscape:connector-curvature="0" d="M545.5,729.8c-1.7-0.6-3.2-1.7-4.1-3c-0.8-1.2-0.8-1.3-0.9-6.3
		c-0.1-5.6,0.2-8.6,1.4-12c2.3-6.6,6.3-12.2,12.5-17.4c2.7-2.3,7.2-5.4,7.5-5.3c0.1,0.1,1.2,0.6,2.3,1.2c3.8,2,9.9,4.3,14.4,5.6
		c0.5,0.1,0.1,0.4-2,1.4c-3.3,1.6-6.2,3.2-6,3.5c0.1,0.1,5.4,0.2,11.7,0.2h11.6l2.6,1.5c1.5,0.8,4,2.7,5.8,4.1l3.1,2.6l-22.4,0.1
		l-22.4,0.1l-1,1.7c-0.9,1.5-2.3,4.6-2.3,5.3c0,0.1,11.9,0.2,28.3,0.2c15.6,0,28.3-0.1,28.3-0.2c0-0.6-1.1-3.3-2-4.8
		c-3.8-6.4-10.5-11.7-19.9-15.5c-1.9-0.8-6.3-2.2-9.7-3.1c-11.6-3.2-20.2-7.4-27.4-13.4c-7.8-6.5-12.4-13.7-14-21.7
		c-0.6-3.1-0.4-9.4,0.3-12.3c2.3-8.9,8.5-16.9,18.1-23.4c1.2-0.8,2.3-1.5,2.4-1.5c0.2,0,1.4,0.6,2.8,1.3c4,2,8.4,3.7,14,5.5
		c0.5,0.2,0.1,0.4-1.9,1.3c-1.4,0.6-3.4,1.7-4.5,2.3l-2,1.2l11.8,0.1l11.8,0.1l2.1,1.2c3.5,2,9,6.3,9,7.1c0,0.2-7.8,0.3-22.2,0.3
		h-22.2l-1.1,2c-1.3,2.3-2.2,4.7-1.9,5c0.3,0.4,56.1,0.3,56.4,0c0.3-0.4-1-3.6-2.4-5.7c-3.6-5.7-10.2-10.8-18.6-14.3
		c-2.3-1-5.7-2.1-7.5-2.6c-5.8-1.5-9.4-2.7-13.5-4.4c-16.1-6.6-27.1-17.3-30.5-29.8c-0.3-1.3-0.5-3.7-0.7-8c-0.2-6-0.1-6.2,0.5-7.5
		c1.2-2.4,4.5-4.2,7.5-4.2c4.3,0,8.1,3.3,8.1,7.1v1.3h29h29v-1.3c0-3.8,3.8-7.1,8.1-7.1c3,0,6.2,1.8,7.5,4.2
		c0.7,1.3,0.7,1.6,0.5,7.5c-0.2,6.6-0.4,7.8-2.1,12.1c-1.9,4.7-5.7,9.9-10.4,14.2c-2.2,2-7.6,6-8.5,6.3c-0.2,0.1-1.6-0.5-3.1-1.2
		c-3.2-1.6-8.8-3.9-12.1-4.9L592,606l2.9-1.4c1.6-0.8,3.6-1.8,4.5-2.3l1.5-1l-11.8-0.1l-11.8-0.1l-2.3-1.3c-1.3-0.7-3.9-2.6-5.8-4.2
		l-3.4-2.9l22.4-0.1l22.4-0.1l0.9-1.4c0.9-1.4,2.4-4.7,2.4-5.4c0-0.3-4.2-0.4-28.3-0.4c-23.4,0-28.3,0.1-28.3,0.3
		c0,0.7,1.3,3.7,2.3,5.4c3.4,5.7,10.5,11.1,19.1,14.7c3.1,1.3,5.2,1.9,11.6,3.7c12.9,3.5,24.8,10.5,31.9,18.7
		c5.6,6.5,8.2,12.6,8.5,20c0.4,8.9-2.6,16.5-9.4,23.8c-2.2,2.4-6.8,6.3-9.8,8.2l-2,1.3l-1-0.5c-5.4-2.8-10.7-4.9-15.9-6.4
		c-0.5-0.1-0.2-0.4,1.7-1.2c2.8-1.3,6-3.1,6.1-3.6c0.1-0.3-2.3-0.3-11.5-0.3h-11.6l-2.6-1.5c-1.5-0.8-4-2.7-5.8-4.1l-3.1-2.6
		l22.4-0.1l22.4-0.1l0.9-1.4c0.9-1.3,2.4-4.9,2.4-5.5c0-0.2-8.4-0.3-28.3-0.3c-15.6,0-28.3,0.1-28.3,0.2c0,0.5,1,3.1,1.7,4.2
		c0.4,0.6,1.2,1.9,1.9,2.9c1.1,1.5,1.8,2.3,4.7,5.2c1,1,6,4.3,8.5,5.7c3.7,2,8.2,3.7,14.8,5.5c6.8,1.9,12.2,3.9,16.9,6.4
		c10,5.3,18.2,13,21.8,20.5c2.7,5.6,3.4,9,3.2,16.3c-0.1,5-0.1,5.1-0.9,6.3c-1.6,2.3-4.2,3.5-7.4,3.3c-4.4-0.2-7.3-2.6-7.7-6.5
		l-0.2-1.7h-28.8h-28.8l-0.2,1.7c-0.3,2.7-2,4.8-4.5,5.9C550.5,730.2,546.8,730.3,545.5,729.8L545.5,729.8z"/>
</g>
</svg>
